<?xml version="1.0" standalone="no"?>
<!DOCTYPE svg PUBLIC "-//W3C//DTD SVG 20010904//EN"
 "http://www.w3.org/TR/2001/REC-SVG-20010904/DTD/svg10.dtd">
<svg version="1.0" xmlns="http://www.w3.org/2000/svg"
 width="501.000000pt" height="498.000000pt" viewBox="0 0 501.000000 498.000000"
 preserveAspectRatio="xMidYMid meet">

<g transform="translate(0.000000,498.000000) scale(0.100000,-0.100000)"
fill="#000000" stroke="none">
<path d="M2435 4799 c-55 -95 -109 -187 -120 -205 -11 -18 -54 -90 -95 -160
-112 -190 -110 -186 -215 -364 -54 -91 -113 -190 -130 -220 -18 -30 -76 -129
-130 -220 -165 -278 -357 -604 -369 -625 -6 -11 -51 -87 -100 -170 -49 -82
-116 -195 -148 -250 -32 -55 -62 -107 -67 -115 -9 -14 -163 -273 -186 -311 -5
-10 -30 -52 -55 -94 -25 -42 -50 -84 -55 -93 -6 -10 -21 -35 -33 -57 -12 -22
-31 -53 -41 -70 -10 -16 -78 -131 -151 -255 -73 -124 -140 -237 -149 -252 -68
-111 -263 -442 -289 -488 -14 -25 -32 -56 -42 -70 -9 -14 -27 -42 -39 -62
l-23 -38 314 0 313 0 40 67 c22 37 52 88 66 113 14 25 54 92 89 150 34 58 74
125 88 150 14 25 58 99 97 165 40 66 125 210 190 320 65 110 143 243 175 295
31 52 109 183 172 290 63 107 194 328 290 490 97 162 235 396 308 520 210 355
351 592 377 634 l25 38 24 -35 c13 -20 24 -39 24 -42 0 -3 17 -34 38 -68 21
-34 57 -93 79 -132 188 -324 382 -658 463 -795 53 -91 175 -299 271 -464 96
-164 186 -319 202 -345 35 -60 67 -119 67 -126 0 -3 -316 -5 -703 -5 l-703 0
-70 -122 c-38 -67 -84 -150 -102 -183 -19 -33 -55 -96 -81 -140 -26 -44 -50
-88 -54 -98 -6 -16 60 -17 1303 -17 946 0 1310 3 1310 11 0 6 -24 52 -54 102
-29 51 -64 110 -76 132 -12 22 -45 79 -73 128 -29 48 -61 104 -72 125 -11 20
-41 73 -66 117 -26 44 -57 98 -69 120 -12 22 -77 135 -143 250 -66 116 -130
228 -143 250 -12 22 -75 132 -139 245 -65 113 -126 221 -137 240 -11 19 -75
130 -141 245 -66 116 -148 260 -183 320 -34 61 -187 328 -339 595 -153 267
-283 494 -289 505 -53 97 -141 245 -146 245 -3 0 -50 -77 -105 -171z"/>
<path d="M2424 3418 c-60 -101 -113 -190 -119 -199 -5 -9 -19 -32 -29 -50 -10
-19 -114 -191 -229 -384 -116 -192 -217 -361 -224 -375 -8 -14 -42 -71 -76
-128 -135 -224 -616 -1026 -700 -1167 -49 -82 -99 -166 -112 -185 -23 -36
-137 -229 -143 -242 -2 -5 944 -8 2102 -8 2214 0 2141 -1 2091 40 -8 7 -15 17
-15 22 0 5 -26 52 -58 106 -83 139 -165 280 -193 332 l-24 45 -1472 5 -1471 5
86 145 c47 80 135 231 197 335 188 318 346 588 373 635 14 25 32 56 42 70 9
14 20 32 23 40 4 8 18 33 31 55 14 22 38 63 54 90 16 28 82 140 147 250 65
110 125 212 133 226 17 29 17 28 -41 122 -186 298 -250 397 -256 397 -4 0 -56
-82 -117 -182z"/>
<path d="M145 473 c-10 -27 -42 -103 -72 -171 -29 -68 -53 -130 -53 -138 0 -9
11 -14 35 -14 33 0 37 4 55 45 l20 46 71 -3 c52 -2 74 -7 79 -18 4 -8 13 -27
21 -42 10 -23 19 -28 51 -28 21 0 38 3 38 6 0 3 -34 87 -76 185 l-77 179 -37
0 c-35 0 -38 -3 -55 -47z m95 -155 c0 -14 -8 -18 -40 -18 -44 0 -45 2 -29 51
21 61 32 66 51 23 10 -22 18 -47 18 -56z"/>
<path d="M454 507 c-2 -7 -3 -89 -2 -182 l3 -170 35 0 35 0 3 58 c3 55 4 57
31 57 23 0 36 -11 70 -60 40 -56 45 -60 82 -60 21 0 39 3 39 8 0 4 -16 31 -35
61 -19 29 -35 55 -35 57 0 2 15 17 33 33 29 26 32 35 32 84 0 94 -52 127 -204
127 -57 0 -83 -4 -87 -13z m201 -77 c22 -18 19 -67 -4 -80 -11 -5 -42 -10 -70
-10 l-51 0 0 54 0 53 55 -2 c31 -2 62 -9 70 -15z"/>
<path d="M824 507 c-2 -7 -3 -89 -2 -182 l3 -170 87 -3 c149 -5 208 23 208 98
0 30 -7 47 -25 66 -27 27 -31 40 -14 46 5 2 13 22 16 46 11 82 -39 112 -186
112 -57 0 -83 -4 -87 -13z m180 -70 c11 -8 17 -23 14 -38 -3 -22 -8 -24 -60
-27 l-58 -3 0 41 0 40 43 0 c24 0 51 -6 61 -13z m20 -143 c19 -7 21 -45 4 -62
-7 -7 -38 -12 -70 -12 l-58 0 0 40 0 40 54 0 c30 0 61 -3 70 -6z"/>
<path d="M1194 507 c-2 -7 -3 -89 -2 -182 l3 -170 38 -3 37 -3 0 185 0 186
-35 0 c-20 0 -38 -6 -41 -13z"/>
<path d="M1347 514 c-4 -4 -7 -22 -7 -41 l0 -33 55 0 55 0 0 -146 0 -145 38 3
37 3 3 143 3 142 55 0 55 0 -3 38 -3 37 -141 3 c-77 1 -143 -1 -147 -4z"/>
<path d="M1707 513 c-4 -3 -7 -87 -7 -185 l0 -178 35 0 35 0 0 60 0 60 33 0
c28 -1 37 -8 72 -60 36 -55 43 -60 76 -60 20 0 38 3 42 6 3 3 -12 32 -33 63
l-39 56 29 23 c37 29 53 83 40 133 -12 44 -33 64 -85 78 -44 12 -188 15 -198
4z m186 -78 c20 -8 24 -64 5 -83 -7 -7 -38 -12 -70 -12 l-58 0 0 48 c0 27 3
51 6 55 8 7 92 2 117 -8z"/>
<path d="M2240 388 c0 -107 4 -140 18 -168 43 -88 205 -95 267 -12 18 24 20
43 20 167 l0 140 -35 0 -35 0 -5 -126 c-6 -144 -17 -169 -75 -169 -58 0 -69
25 -75 169 l-5 126 -37 3 -38 3 0 -133z"/>
<path d="M2634 507 c-2 -7 -3 -89 -2 -182 l3 -170 35 0 35 0 5 112 5 112 45
-69 c25 -39 47 -70 50 -70 3 0 18 21 35 48 16 26 35 53 42 60 7 7 14 19 15 25
1 7 4 -40 7 -103 l6 -115 35 0 35 0 0 180 0 180 -37 3 c-34 3 -39 0 -64 -40
-60 -94 -69 -108 -74 -108 -3 0 -26 34 -50 75 -43 72 -46 75 -83 75 -21 0 -40
-5 -43 -13z"/>
<path d="M3557 513 c-4 -3 -7 -87 -7 -185 l0 -178 135 0 135 0 0 35 0 35 -95
0 -95 0 0 40 0 40 85 0 85 0 0 35 0 35 -85 0 -85 0 0 40 0 40 95 -3 95 -2 0
38 0 37 -128 0 c-71 0 -132 -3 -135 -7z"/>
<path d="M3990 504 c-69 -30 -110 -93 -110 -168 0 -56 14 -93 48 -130 57 -60
161 -75 242 -33 l45 22 3 83 3 83 -78 -3 -78 -3 0 -30 c0 -28 3 -30 43 -33 37
-3 42 -6 42 -27 0 -50 -97 -63 -148 -20 -58 49 -49 156 17 189 39 21 69 20
111 -2 l34 -19 25 29 c20 25 22 31 10 40 -58 40 -146 49 -209 22z"/>
<path d="M4411 498 c-5 -13 -39 -93 -75 -178 -36 -85 -66 -159 -66 -163 0 -5
17 -7 37 -5 33 3 41 8 59 43 l20 40 71 3 71 3 18 -46 c18 -42 21 -45 57 -45
20 0 37 4 37 9 0 5 -30 80 -66 167 -36 88 -68 167 -71 177 -4 12 -16 17 -44
17 -32 0 -41 -4 -48 -22z m69 -134 c26 -61 26 -65 -12 -60 -18 3 -38 5 -45 5
-9 1 -9 9 1 34 7 17 16 40 19 50 10 26 16 21 37 -29z"/>
<path d="M4704 507 c-2 -7 -3 -89 -2 -182 l3 -170 125 0 125 0 3 33 3 32 -90
0 -91 0 0 150 0 150 -35 0 c-20 0 -38 -6 -41 -13z"/>
<path d="M2072 333 l3 -178 35 0 35 0 3 178 2 177 -40 0 -40 0 2 -177z"/>
<path d="M3232 333 l3 -178 128 -3 127 -3 0 36 0 35 -90 0 -90 0 0 145 0 145
-40 0 -40 0 2 -177z"/>
</g>
</svg>
